<?xml version="1.0" standalone="no"?>
<!DOCTYPE svg PUBLIC "-//W3C//DTD SVG 20010904//EN"
 "http://www.w3.org/TR/2001/REC-SVG-20010904/DTD/svg10.dtd">
<svg version="1.0" xmlns="http://www.w3.org/2000/svg"
 width="186.000000pt" height="186.000000pt" viewBox="0 0 186.000000 186.000000"
 preserveAspectRatio="xMidYMid meet">
<metadata>
Created by potrace 1.11, written by Peter Selinger 2001-2013
</metadata>
<g transform="translate(0.000000,186.000000) scale(0.100000,-0.100000)"
fill="#000000" stroke="none">
<path d="M807 1756 c-150 -54 -148 -237 3 -423 27 -32 67 -73 90 -92 49 -39
54 -37 112 53 68 105 95 240 67 339 -30 108 -155 164 -272 123z"/>
<path d="M1621 1499 c-191 -37 -330 -135 -444 -311 -71 -108 -79 -124 -198
-405 -158 -370 -230 -501 -366 -664 -40 -49 -67 -89 -60 -89 41 0 183 47 257
86 110 57 200 131 282 233 83 104 149 231 236 456 138 356 226 525 333 640 60
63 61 65 33 64 -16 -1 -49 -5 -73 -10z"/>
<path d="M170 1363 c0 -5 16 -19 35 -32 107 -72 262 -256 330 -391 104 -205
131 -472 70 -700 -8 -30 -13 -56 -10 -58 2 -2 28 32 59 75 60 85 154 259 210
392 42 96 40 114 -21 236 -46 93 -86 146 -175 231 -84 81 -135 117 -233 167
-89 44 -265 98 -265 80z"/>
</g>
</svg>
